<svg width="239" height="308" viewBox="0 0 239 308" fill="none" xmlns="http://www.w3.org/2000/svg">
    <g clip-path="url(#clip0_1_110)">
    <path d="M211.553 307.503H107.498C92.3628 307.503 80.051 295.912 80.051 281.662V25.8404C80.051 11.5912 92.3628 0 107.498 0H211.553C226.688 0 239 11.5912 239 25.8404V281.662C239 295.912 226.688 307.503 211.553 307.503Z" fill="#DADBDC"/>
    <path d="M211.628 300.508H107.423C96.2207 300.508 87.104 291.925 87.104 281.378V25.6223C87.104 15.0761 96.2207 6.49307 107.423 6.49307H211.628C222.83 6.49307 231.947 15.0761 231.947 25.6223V281.378C231.947 291.925 222.83 300.508 211.628 300.508Z" fill="white"/>
    <path d="M174.262 23.5171H144.794C140.904 23.5171 137.741 20.5394 137.741 16.8769C137.741 13.2144 140.904 10.2367 144.794 10.2367H174.262C178.152 10.2367 181.315 13.2144 181.315 16.8769C181.315 20.5394 178.152 23.5171 174.262 23.5171Z" fill="#DADBDC"/>
    <path d="M204.333 101.617H118.107C116.399 101.617 115.009 99.9528 115.009 97.9135C115.009 95.8743 116.399 94.2104 118.107 94.2104H204.333C206.041 94.2104 207.431 95.8743 207.431 97.9135C207.431 99.9528 206.041 101.617 204.333 101.617Z" fill="#DADBDC"/>
    <path d="M204.333 118.027H118.107C116.399 118.027 115.009 116.363 115.009 114.324C115.009 112.285 116.399 110.621 118.107 110.621H204.333C206.041 110.621 207.431 112.285 207.431 114.324C207.431 116.363 206.041 118.027 204.333 118.027Z" fill="#DADBDC"/>
    <path d="M179.607 134.437H118.107C116.399 134.437 115.009 132.773 115.009 130.734C115.009 128.695 116.399 127.031 118.107 127.031H179.607C181.315 127.031 182.705 128.695 182.705 130.734C182.705 132.773 181.315 134.437 179.607 134.437Z" fill="#DADBDC"/>
    <path d="M159.526 230.92C179.853 230.92 196.332 215.406 196.332 196.268C196.332 177.131 179.853 161.617 159.526 161.617C139.198 161.617 122.719 177.131 122.719 196.268C122.719 215.406 139.198 230.92 159.526 230.92Z" fill="#A1E0E9"/>
    <path d="M149.735 196.989C151.637 200.494 153.539 204.004 155.441 207.51C155.986 208.519 157.586 208.199 157.904 207.205C160.398 199.373 165.032 192.236 171.277 186.559C172.527 185.423 170.62 183.632 169.37 184.763C162.796 190.739 157.931 198.292 155.301 206.531L157.764 206.226C155.862 202.721 153.96 199.211 152.058 195.705C151.271 194.249 148.943 195.533 149.73 196.984H149.735V196.989Z" fill="white"/>
    <path d="M60.3036 154.353L51.3809 157.219L51.2408 145.09L59.3607 145.004L60.3036 154.353Z" fill="#F3A3A6"/>
    <path d="M52.2861 148.438C57.214 148.438 61.2088 144.677 61.2088 140.037C61.2088 135.398 57.214 131.637 52.2861 131.637C47.3583 131.637 43.3634 135.398 43.3634 140.037C43.3634 144.677 47.3583 148.438 52.2861 148.438Z" fill="#F3A3A6"/>
    <path d="M54.7269 139.18C53.2344 139.155 52.2376 137.744 51.6396 136.451C51.0415 135.162 50.4272 133.676 49.0425 133.154C47.9056 132.728 45.9443 135.705 45.0391 134.929C44.0962 134.117 44.9583 129.887 45.9389 129.121C46.9196 128.355 48.272 128.193 49.5436 128.122C52.6525 127.954 55.7776 128.157 58.8327 128.725C60.7185 129.075 62.669 129.613 64.043 130.881C65.7833 132.489 66.2521 134.939 66.403 137.232C66.5592 139.576 66.4407 142.036 65.2553 144.106C64.0645 146.17 61.5483 147.712 59.1075 147.215C58.8488 145.972 59.0805 144.694 59.1613 143.426C59.2422 142.163 59.1236 140.798 58.2939 139.799C57.4641 138.8 55.7076 138.419 54.7647 139.322" fill="#2F2E43"/>
    <path d="M65.7348 141.975C66.6185 141.351 67.6799 140.824 68.7791 140.94C69.9699 141.062 70.9828 141.975 71.3007 143.061C71.6186 144.146 71.29 145.348 70.568 146.246C69.8459 147.144 68.7629 147.743 67.6099 148.047C66.9418 148.225 66.2144 148.301 65.5732 148.047C64.6303 147.677 64.113 146.556 64.4686 145.653" fill="#2F2E43"/>
    <path d="M32.5333 221.338C31.973 224.102 33.0883 226.613 35.0334 226.943C36.9731 227.273 39.0045 225.294 39.5648 222.53C39.8073 221.429 39.7534 220.288 39.4086 219.207L46.273 175.881L37.027 174.344L33.9827 218.289C33.2392 219.187 32.7381 220.232 32.5333 221.343V221.338Z" fill="#F3A3A6"/>
    <path d="M51.2193 151.654L44.9206 151.72C40.4754 152.4 39.29 154.652 38.3309 158.791C36.86 165.107 34.9849 173.522 35.3783 173.639C36.0087 173.832 46.7849 178.468 52.2376 177.322L51.2193 151.654Z" fill="#A1E0E9"/>
    <path d="M58.9542 289.353L50.5709 289.441L50.7037 300.636L59.087 300.548L58.9542 289.353Z" fill="#F3A3A6"/>
    <path d="M42.5983 307.503C41.7147 307.513 40.9334 307.503 40.3407 307.457C38.11 307.29 35.971 305.763 34.8879 304.87C34.403 304.469 34.2414 303.82 34.4838 303.262C34.6563 302.861 35.0119 302.557 35.4537 302.43L41.3213 300.787L50.7775 294.633L50.8852 294.811C50.9283 294.877 51.882 296.455 52.2053 297.525C52.3292 297.931 52.3023 298.271 52.1245 298.534C52.0006 298.717 51.8281 298.823 51.688 298.889C51.8605 299.057 52.4047 299.397 54.075 299.63C56.505 299.97 56.9953 297.591 57.0115 297.489L57.0277 297.408L57.0977 297.363C58.2454 296.647 58.9512 296.323 59.1991 296.389C59.3553 296.429 59.6086 296.5 60.3737 302.953C60.4437 303.156 60.9448 304.637 60.6323 306.062C60.2928 307.614 53.1105 307.153 51.6773 307.046C51.6342 307.051 46.2676 307.467 42.5875 307.503H42.5983Z" fill="#2F2E43"/>
    <path d="M82.7163 280.291L75.6524 284.543L82.0575 293.976L89.1213 289.724L82.7163 280.291Z" fill="#F3A3A6"/>
    <path d="M73.553 305.641C72.5669 305.651 71.6617 305.55 71.0152 305.448C70.3794 305.347 69.8783 304.88 69.7705 304.282C69.6897 303.851 69.8244 303.419 70.1261 303.095L74.178 298.778L78.7417 288.845L78.9357 288.942C79.0057 288.977 80.703 289.84 81.5812 290.585C81.9153 290.869 82.0823 291.169 82.0823 291.483C82.0823 291.701 81.9961 291.879 81.9099 292.001C82.1524 292.056 82.8043 292.072 84.3507 291.438C86.6029 290.514 85.6816 288.252 85.6385 288.161L85.6062 288.085L85.6439 288.014C86.215 286.837 86.6353 286.208 86.8777 286.137C87.034 286.096 87.2872 286.025 91.5654 291.118C91.7378 291.255 92.9986 292.259 93.532 293.624C94.114 295.11 87.7668 298.296 86.4844 298.92C86.4467 298.95 79.8139 303.592 77.0876 304.921C76.0046 305.448 74.7168 305.621 73.5422 305.631L73.553 305.641Z" fill="#2F2E43"/>
    <path d="M64.0053 195.644L40.5347 195.888L38.6488 216.463L48.8647 292.32L60.8478 292.193L55.5405 248.375L75.4442 287.78L86.0103 280.648L70.3955 243.83C70.3955 243.83 75.4388 211.563 71.0852 203.583C66.7316 195.604 64.0106 195.634 64.0106 195.634V195.644H64.0053Z" fill="#2F2E43"/>
    <path d="M75.692 196.776L38.4172 197.166L49.064 151.679L65.3092 151.507L75.692 196.776Z" fill="#A1E0E9"/>
    <path d="M79.3344 220.851C79.9594 223.605 78.9034 226.137 76.969 226.507C75.0347 226.877 72.9603 224.944 72.3353 222.19C72.0658 221.094 72.0928 219.953 72.4107 218.862L64.5225 175.688L73.7308 173.959L77.8096 217.833C78.5747 218.715 79.0973 219.75 79.3344 220.856V220.851Z" fill="#F3A3A6"/>
    <path d="M59.0105 151.573L65.3092 151.507C69.7705 152.095 71.0044 154.322 72.0658 158.441C73.6823 164.726 75.7567 173.096 75.3688 173.223C74.7383 173.426 64.0807 178.286 58.601 177.256L59.0159 151.573H59.0105Z" fill="#A1E0E9"/>
    <path d="M115.887 307.503C115.887 307.777 115.65 308 115.359 308H0.528034C0.237076 308 0 307.777 0 307.503C0 307.229 0.237076 307.006 0.528034 307.006H115.359C115.65 307.006 115.887 307.229 115.887 307.503Z" fill="#3F3D58"/>
    </g>
    <defs>
    <clipPath id="clip0_1_110">
    <rect width="239" height="308" fill="white"/>
    </clipPath>
    </defs>
    </svg>
    